<mxfile host="app.diagrams.net" modified="2021-07-09T02:18:26.077Z" agent="5.0 (Windows NT 10.0; Win64; x64) AppleWebKit/537.36 (KHTML, like Gecko) Chrome/91.0.4472.124 Safari/537.36" etag="IYTIjx_NPhW5ACcj_A_G" version="14.8.5" type="github">
  <diagram id="xKrIoZmH67Yrq2KpyRyY" name="Page-1">
    <mxGraphModel dx="1446" dy="370" grid="1" gridSize="10" guides="0" tooltips="1" connect="0" arrows="1" fold="1" page="1" pageScale="1" pageWidth="850" pageHeight="1100" math="0" shadow="0">
      <root>
        <mxCell id="0" />
        <mxCell id="1" parent="0" />
        <mxCell id="B5G9cc0C3TzEsLCBOuQY-1" value="" style="ellipse;whiteSpace=wrap;html=1;aspect=fixed;" parent="1" vertex="1">
          <mxGeometry x="270" y="250" width="80" height="80" as="geometry" />
        </mxCell>
        <mxCell id="PtMZDiAMHlSQavkfiBzt-13" value="" style="ellipse;whiteSpace=wrap;html=1;aspect=fixed;strokeColor=#FFFF66;" vertex="1" parent="1">
          <mxGeometry x="-560" y="210" width="80" height="80" as="geometry" />
        </mxCell>
        <mxCell id="PtMZDiAMHlSQavkfiBzt-15" value="" style="shape=cylinder3;whiteSpace=wrap;html=1;boundedLbl=1;backgroundOutline=1;size=15;strokeColor=#FFFF66;" vertex="1" parent="1">
          <mxGeometry x="-240" y="220" width="60" height="80" as="geometry" />
        </mxCell>
        <mxCell id="PtMZDiAMHlSQavkfiBzt-18" value="" style="endArrow=classic;html=1;entryX=-0.007;entryY=0.435;entryDx=0;entryDy=0;entryPerimeter=0;" edge="1" parent="1" target="PtMZDiAMHlSQavkfiBzt-15">
          <mxGeometry width="50" height="50" relative="1" as="geometry">
            <mxPoint x="-490" y="260" as="sourcePoint" />
            <mxPoint x="-440" y="210" as="targetPoint" />
          </mxGeometry>
        </mxCell>
        <mxCell id="PtMZDiAMHlSQavkfiBzt-19" value="" style="endArrow=classic;html=1;entryX=-0.073;entryY=0.075;entryDx=0;entryDy=0;entryPerimeter=0;" edge="1" parent="1" target="PtMZDiAMHlSQavkfiBzt-15">
          <mxGeometry width="50" height="50" relative="1" as="geometry">
            <mxPoint x="-480" y="260" as="sourcePoint" />
            <mxPoint x="-430" y="210" as="targetPoint" />
          </mxGeometry>
        </mxCell>
      </root>
    </mxGraphModel>
  </diagram>
</mxfile>
